<?xml version="1.0" encoding="utf-8"?>
<!-- Generator: Adobe Illustrator 27.2.0, SVG Export Plug-In . SVG Version: 6.00 Build 0)  -->
<svg version="1.1" id="Layer_1" xmlns="http://www.w3.org/2000/svg" xmlns:xlink="http://www.w3.org/1999/xlink" x="0px" y="0px"
	 viewBox="0 0 800 800" style="enable-background:new 0 0 800 800;" xml:space="preserve">
<style type="text/css">
	.st0{fill:#ED1C24;}
	.st1{fill:#FFFFFF;}
</style>
<g>
	<rect x="1" y="0" width="799" height="799"/>
	<polygon class="st0" points="250.7,99.9 250.3,99.9 250.7,100.3 	"/>
	
		<rect x="100.9" y="99.9" transform="matrix(-1.836970e-16 1 -1 -1.836970e-16 400.5001 -1.0001)" class="st1" width="199.8" height="199.8"/>
	
		<rect x="500.4" y="499.4" transform="matrix(6.123234e-17 -1 1 6.123234e-17 1.0001 1199.5001)" class="st1" width="199.8" height="199.8"/>
	<path class="st1" d="M700.1,99.9H400.5l-0.1,157c0,78.8-63.9,142.6-142.7,142.6H100.9v299.6h299.6V542.3
		c0-78.8,63.8-142.6,142.6-142.7l157-0.1V99.9z"/>
</g>
</svg>
